<?xml version="1.0" standalone="no"?>
<!DOCTYPE svg PUBLIC "-//W3C//DTD SVG 20010904//EN"
 "http://www.w3.org/TR/2001/REC-SVG-20010904/DTD/svg10.dtd">
<svg version="1.0" xmlns="http://www.w3.org/2000/svg"
 width="267.000000pt" height="267.000000pt" viewBox="0 0 267.000000 267.000000"
 preserveAspectRatio="xMidYMid meet">
<metadata>
Created by potrace 1.11, written by Peter Selinger 2001-2013
</metadata>
<g transform="translate(0.000000,267.000000) scale(0.100000,-0.100000)"
fill="#000000" stroke="none">
<path d="M0 1335 l0 -1335 1335 0 1335 0 0 1335 0 1335 -1335 0 -1335 0 0
-1335z m2570 0 l0 -1235 -1235 0 -1235 0 0 1235 0 1235 1235 0 1235 0 0 -1235z"/>
<path d="M860 1355 l0 -835 180 0 180 0 0 355 0 355 280 0 280 0 0 150 0 150
-280 0 -280 0 0 180 0 180 305 0 305 0 0 150 0 150 -485 0 -485 0 0 -835z"/>
<path d="M1320 665 l0 -145 255 0 255 0 0 145 0 145 -255 0 -255 0 0 -145z"/>
</g>
</svg>
